# This file uses centimeters as units for non-parametric coordinates.

mtllib boc.mtl
g default
v -6.014957 3.953649 1.388504
v 6.014957 3.953649 1.388504
v -6.014957 6.505388 1.388504
v 6.014957 6.505388 1.388504
v -6.014957 6.505388 -1.388504
v 6.014957 6.505388 -1.388504
v -6.014957 3.953649 -1.388504
v 6.014957 3.953649 -1.388504
vt -0.001771 0.000000
vt 0.997232 0.000000
vt 0.002768 0.250000
vt 0.990423 0.250000
vt 0.000499 0.500000
vt 0.992692 0.500000
vt -0.004041 0.750000
vt 0.994962 0.750000
vt -0.001771 1.000000
vt 0.997232 1.000000
vt 1.244962 0.000000
vt 1.242692 0.250000
vt -0.254041 0.000000
vt -0.249501 0.250000
vn 0.000000 0.000000 1.000000
vn 0.000000 0.000000 1.000000
vn 0.000000 0.000000 1.000000
vn 0.000000 0.000000 1.000000
vn 0.000000 1.000000 0.000000
vn 0.000000 1.000000 0.000000
vn 0.000000 1.000000 0.000000
vn 0.000000 1.000000 0.000000
vn 0.000000 0.000000 -1.000000
vn 0.000000 0.000000 -1.000000
vn 0.000000 0.000000 -1.000000
vn 0.000000 0.000000 -1.000000
vn 0.000000 -1.000000 0.000000
vn 0.000000 -1.000000 0.000000
vn 0.000000 -1.000000 0.000000
vn 0.000000 -1.000000 0.000000
vn 1.000000 0.000000 0.000000
vn 1.000000 0.000000 0.000000
vn 1.000000 0.000000 0.000000
vn 1.000000 0.000000 0.000000
vn -1.000000 0.000000 0.000000
vn -1.000000 0.000000 0.000000
vn -1.000000 0.000000 0.000000
vn -1.000000 0.000000 0.000000
s off
g pCube1
usemtl lambert3SG
f 1/1/1 2/2/2 4/4/3 3/3/4
f 3/3/5 4/4/6 6/6/7 5/5/8
f 5/5/9 6/6/10 8/8/11 7/7/12
f 7/7/13 8/8/14 2/10/15 1/9/16
f 2/2/17 8/11/18 6/12/19 4/4/20
f 7/13/21 1/1/22 3/3/23 5/14/24
