<?xml version="1.0" encoding="utf-8"?>
<!-- Generator: Adobe Illustrator 23.0.1, SVG Export Plug-In . SVG Version: 6.00 Build 0)  -->
<svg version="1.1" id="Layer_1" xmlns="http://www.w3.org/2000/svg" xmlns:xlink="http://www.w3.org/1999/xlink" x="0px" y="0px"
	 viewBox="0 0 200 100" style="enable-background:new 0 0 200 100;" xml:space="preserve">
<style type="text/css">
	.st0{fill:#FFFFFF;}
</style>
<g>
	<g>
		<path class="st0" d="M6.28,54.5c20.55,0,41.11,0,61.66,0c32.98,0,65.96,0,98.94,0c7.57,0,15.14,0,22.71,0
			c3.62,0,6.31-5.12,3.18-7.68c-18.3-14.99-36.6-29.98-54.91-44.97c-4.45-3.64-10.85,2.69-6.36,6.36
			c18.3,14.99,36.6,29.98,54.91,44.97c1.06-2.56,2.12-5.12,3.18-7.68c-20.55,0-41.11,0-61.66,0c-32.98,0-65.96,0-98.94,0
			c-7.57,0-15.14,0-22.71,0C0.49,45.5,0.48,54.5,6.28,54.5L6.28,54.5z"/>
	</g>
</g>
<g>
	<g>
		<path class="st0" d="M186.41,46.82c-18.43,14.83-36.85,29.65-55.28,44.48c-4.51,3.63,1.89,9.96,6.36,6.36
			c18.43-14.83,36.85-29.65,55.28-44.48C197.28,49.55,190.88,43.22,186.41,46.82L186.41,46.82z"/>
	</g>
</g>
</svg>
