<svg id="Layer_1" data-name="Layer 1" xmlns="http://www.w3.org/2000/svg" viewBox="0 0 192.38 97.98"><defs><style>.cls-1,.cls-3{fill:#fff;}.cls-2{fill:#231f20;}.cls-3{stroke:#231f20;stroke-miterlimit:10;}</style></defs><title>arrow</title><polyline class="cls-1" points="4.35 49.25 187.66 49.25 132.75 4.27"/><path class="cls-2" d="M6.28,54.5H189.59c3.61,0,6.31-5.12,3.18-7.68l-54.91-45C133.42-1.8,127,4.54,131.5,8.21l54.91,45,3.18-7.68H6.28c-5.79,0-5.8,9,0,9Z" transform="translate(-1.93 -0.75)"/><path class="cls-3" d="M196,50" transform="translate(-1.93 -0.75)"/><line class="cls-1" x1="187.66" y1="49.25" x2="132.38" y2="93.73"/><path class="cls-2" d="M186.41,46.82,131.12,91.3c-4.51,3.63,1.89,10,6.37,6.36l55.28-44.48c4.51-3.63-1.89-10-6.36-6.36Z" transform="translate(-1.93 -0.75)"/></svg>