<svg id="Layer_2" data-name="Layer 2" xmlns="http://www.w3.org/2000/svg" viewBox="0 0 675.08 211.17"><defs><style>.cls-1{fill:#fff;}</style></defs><title>key</title><path d="M573.67,488a22.48,22.48,0,0,1,9-10.67c5-3,9.76-3,14-3,4,0,7.87,0,11.66,2.34a28.27,28.27,0,0,1,6.34,5.66c2.11,2.66,2.74,4.59,4.33,4.67s2-2,4.67-2.67a7.14,7.14,0,0,1,5,.67,7.54,7.54,0,0,1,3.49,5.4,98.64,98.64,0,0,1,18.61-50c4.43-6,16.77-22.37,39.53-31.4,7.11-2.82,19.26-7.48,34.89-5.81,23.28,2.48,38.19,17.3,45.34,24.41,19,18.85,24.45,40.46,26.75,50,5.9,24.54,1.94,44.33,0,53.49-3,14.32-8.12,38.36-29.07,58.14-6,5.65-29.39,27.82-61.63,24.42-24.91-2.63-40.94-18.8-45.35-23.25a103.32,103.32,0,0,1-24.42-40.7,110.08,110.08,0,0,1-5.14-24.7,12.9,12.9,0,0,1-3.67,3c-1.6.87-3.51,1.91-5.33,1.33-2.55-.8-2.85-4.09-4.34-4-1.06.07-1.3,1.79-2.66,3.67-1.76,2.42-4.1,3.37-7.34,4.67a30.55,30.55,0,0,1-10.33,2c-3.4.19-6.18.36-9.67-.67a25.7,25.7,0,0,1-7.66-4,43.77,43.77,0,0,1-8-7l-314.34-.33q-8.8,36.42-17.62,72.86l-15,.8q-1-34-1.94-68L209.33,594h-15q-3.56-32.54-7.12-65.06-4.62,34.65-9.23,69.31l-14.31-.58q-7.35-37.12-14.68-74.24l-4-.1a14.66,14.66,0,0,1-6.67,0c-7-1.68-12.61-8.89-13-16.66a19.2,19.2,0,0,1,12-18.34h21.34Z" transform="translate(-125.31 -402.83)"/><path class="cls-1" d="M724,438.41c18.49,3.43,28.66,17.8,32.33,23,19.75,27.9,9.28,62.27,7.34,68.66-3.58,11.75-12.42,40.77-37.67,47.67-20.31,5.55-38.47-6.72-43.33-10.33-26.88-20-24.73-56.38-24.34-63,.36-6.05,2.36-40,29-57.34C691.39,444.43,705.81,435,724,438.41Z" transform="translate(-125.31 -402.83)"/></svg>