# This file uses centimeters as units for non-parametric coordinates.

mtllib boxTest2.mtl
g default
v 1869.148136 108.858204 49.569809
v -1529.663832 95.717391 -20.837999
v 1869.556901 -95.717391 68.019092
v -1529.255067 -108.858204 -2.388717
vt 0.000000 0.000000
vt 1.000000 0.000000
vt 0.000000 0.994676
vt 1.000000 0.994676
vn -0.020974 0.089757 0.995743
vn -0.020974 0.089757 0.995743
vn -0.020974 0.089757 0.995743
vn -0.020974 0.089757 0.995743
s off
g pPlane2
usemtl lambert45SG
f 1/1/1 2/2/2 4/4/3 3/3/4
