# This file uses centimeters as units for non-parametric coordinates.

mtllib star.mtl
g default
v -23.111553 -0.296861 6.739564
v -22.237288 -0.099511 6.653264
v -22.677401 2.303233 6.072824
v -22.644978 -0.442896 6.228316
v -22.701897 0.048881 6.194754
v -20.856522 -0.227721 7.689021
v -22.696114 -0.010531 6.295290
v -21.650263 -2.112707 7.941401
v -23.114395 -0.297511 6.740195
v -22.818243 -0.458228 6.659936
v -22.465368 -0.497109 6.440778
v -23.197577 -0.456767 6.462720
v -23.110273 -0.294817 6.731346
v -25.141785 -0.028922 5.439585
v -24.636948 -2.369294 6.511181
v -23.277802 -0.010531 6.055068
v -23.277987 -0.009913 6.054089
v -22.283623 -0.550358 6.669726
v -22.735558 -0.010531 6.243018
v -22.937208 -1.099374 6.516122
v -23.010908 -0.701365 6.582877
v -22.887959 -0.672628 6.537981
v -23.106905 -0.299349 6.729916
v -22.764223 -0.745334 6.417176
v -22.876654 -0.003373 6.155577
v -22.843298 -0.865851 6.370126
v -23.036045 -0.710803 6.208443
v -23.176296 -0.591718 6.110477
v -22.920181 0.012932 6.143586
v -22.829748 -1.041999 6.537921
v -22.817041 -0.885324 6.397331
v -23.551504 -0.713973 6.131126
v -22.308939 -0.699545 6.802406
v -22.878155 -0.010531 6.155609
v -22.885847 -0.010531 6.190227
v -23.111376 -0.296971 6.734220
v -23.071333 -0.584715 6.485710
v -23.545322 -0.719397 6.132616
v -22.736282 0.009441 6.239924
v -22.753695 -0.010531 6.262797
v -22.965197 -0.667269 6.583606
vt 0.599656 -0.957776
vt 1.131261 -0.957776
vt -0.463556 2.457776
vt -0.463555 -0.957776
vt 0.068051 -0.957776
vt -0.463556 2.457776
vt 1.494304 -0.957776
vt -0.463556 2.457776
vt 0.599656 -0.957776
vt 0.470825 -0.957776
vt -0.137410 -0.957776
vt 0.745060 -0.957776
vt 0.599656 -0.957776
vt -0.463556 2.457776
vt -0.463556 2.457776
vt 0.068906 -0.957776
vt 0.067908 -0.956864
vt 0.006037 -0.559343
vt 1.558654 -0.957776
vt 0.989756 -0.654719
vt 0.820900 -0.957776
vt 0.944141 -0.957776
vt 0.599656 -0.957776
vt 1.278229 -0.957776
vt 1.148607 -0.957776
vt 1.395525 -0.957776
vt -0.196317 -0.957776
vt 1.383005 -0.957776
vt 1.098563 -0.887747
vt 0.035107 -0.746111
vt -0.136370 -0.957776
vt 0.887293 -0.435281
vt 0.036610 -0.309288
vt -0.374072 -0.957776
vt -0.315166 -0.957776
vt 1.056333 -0.957776
vt 1.093797 -0.957776
vt 0.599656 -0.957776
vt 0.367196 -0.957776
vt 0.895936 -0.435994
vt 1.543200 -0.928294
vt 0.666567 -0.720697
vt 0.719900 -0.076780
vt -0.160554 -0.957776
vt 1.099149 -0.624968
vt 1.368150 -0.897066
vt 0.827047 -0.361916
vt 0.827663 -0.361166
vt 0.384749 -0.957776
vt 0.034922 -0.568442
vt 0.371706 -0.876239
vt -0.296556 -0.693907
vt -0.047183 -0.217401
vt 0.124713 -0.957776
vt 0.127770 -0.863520
vt 0.153407 -0.957776
vt 0.957913 -0.152011
vt 1.312039 -0.564292
vt -0.375320 -0.947209
vt -0.326277 -0.923140
vt 0.107172 -0.957776
vt -0.046442 -0.206606
vt 0.397054 -0.734595
vt 0.273057 -0.957776
vt -0.170264 -0.957776
vt 0.659001 -0.957776
vt 0.403814 -0.957776
vt 0.013730 -0.957776
vt -0.196317 -0.957776
vt -0.196317 -0.957776
vt -0.196317 -0.957776
vt -0.196317 -0.957776
vt -0.196317 -0.957776
vt -0.196317 -0.957776
vt -0.196317 -0.957776
vt -0.047183 -0.217401
vt 0.384749 -0.957776
vt -0.170264 -0.957776
vt 1.056333 -0.957776
vn -0.408393 0.290125 0.865473
vn 0.458936 0.287063 0.840816
vn -0.236199 0.400715 0.885233
vn 0.630989 0.020104 -0.775531
vn 0.635508 0.164056 -0.754464
vn -0.002374 0.910868 0.412691
vn -0.213820 0.306542 -0.927531
vn -0.056405 0.369957 -0.927335
vn -0.182474 0.409044 -0.894084
vn -0.067608 0.383801 -0.920937
vn -0.396948 0.547940 -0.736338
vn 0.452824 -0.473345 -0.755576
vn 0.489862 -0.439922 -0.752664
vn 0.519313 -0.384701 -0.763099
vn 0.676777 -0.163829 -0.717728
vn 0.301399 -0.067516 -0.951105
vn 0.343629 -0.146535 -0.927603
vn 0.299695 -0.138778 -0.943888
vn 0.395732 -0.157487 -0.904762
vn 0.949333 -0.170982 0.263689
vn 0.944000 -0.155082 0.291227
vn 0.938604 -0.141234 0.314763
vn -0.922056 0.215036 0.321826
vn -0.917216 0.235544 0.321300
vn 0.729348 -0.249535 -0.637012
vn 0.738660 -0.219364 -0.637386
vn 0.706620 -0.314194 -0.634012
vn -0.687657 -0.057721 0.723737
vn -0.681555 -0.065070 0.728868
vn -0.805538 -0.317757 0.500139
vn -0.944935 -0.124191 -0.302778
vn 0.553262 -0.587133 -0.590911
vn 0.474178 -0.593212 -0.650580
vn 0.252152 -0.584550 -0.771181
vn -0.730769 -0.130316 -0.670070
vn -0.730769 -0.130316 -0.670070
vn -0.730764 -0.130307 -0.670078
vn -0.747184 -0.135995 -0.650554
vn -0.747144 -0.119719 -0.653791
vn -0.743714 -0.103599 -0.660421
vn 0.646807 0.541729 -0.536815
vn 0.705680 0.510817 -0.491001
vn 0.729861 0.564951 -0.384880
vn 0.741711 0.601374 -0.297008
vn 0.386452 -0.531753 -0.753587
vn 0.303106 -0.446535 -0.841863
vn 0.401773 -0.394719 -0.826302
vn 0.260876 -0.411251 -0.873394
vn 0.335818 -0.399822 -0.852859
vn 0.300981 0.106574 -0.947656
vn 0.298862 0.099908 -0.949052
vn 0.249179 -0.046188 -0.967355
vn 0.381481 -0.609290 -0.695153
vn 0.460003 -0.613389 -0.641990
vn 0.467360 -0.611139 -0.638815
vn -0.603327 0.380126 0.701071
vn -0.533109 0.321197 0.782705
vn -0.799115 0.570738 0.188875
vn -0.201660 0.866406 -0.456808
vn 0.098574 0.651934 0.751841
vn 0.098577 0.651929 0.751845
vn 0.433115 0.722820 0.538463
vn 0.521112 -0.075633 -0.850131
vn 0.520711 -0.085142 -0.849477
vn 0.520610 -0.087367 -0.849313
vn 0.159116 -0.890910 -0.425395
vn 0.156274 -0.894827 -0.418167
vn 0.163877 -0.891870 -0.421560
vn 0.141767 -0.900492 -0.411115
vn 0.157028 -0.904091 -0.397445
vn 0.205408 -0.905794 -0.370600
vn 0.024349 -0.239007 -0.970713
vn 0.078043 -0.385016 -0.919604
vn 0.024418 -0.238888 -0.970740
vn -0.094904 0.102621 -0.990183
vn 0.626182 -0.072613 -0.776289
vn 0.176991 -0.877837 -0.445058
vn -0.647269 -0.095125 0.756303
vn -0.052445 -0.480822 0.875248
vn -0.270723 -0.643584 0.715897
vn -0.278501 0.736481 0.616468
vn -0.402525 -0.350212 0.845769
vn 0.424632 -0.511457 -0.747060
vn 0.332674 -0.593823 -0.732600
vn 0.248492 -0.658021 -0.710816
vn -0.189289 0.814153 0.548930
vn -0.394327 0.515575 0.760716
vn -0.189289 0.814154 0.548929
vn -0.142807 0.898943 0.414136
vn -0.145510 0.898274 0.414645
vn -0.393792 0.564660 0.725319
vn -0.456628 0.608595 0.648924
vn 0.052294 -0.073873 0.995896
vn 0.202751 -0.291805 0.934742
vn 0.206239 -0.242379 0.948007
vn 0.133546 -0.531060 -0.836744
vn 0.133547 -0.531057 -0.836746
vn -0.282197 0.818721 0.500060
vn -0.205700 0.888969 0.409171
vn -0.218951 0.895278 0.387992
vn 0.548585 -0.605684 -0.576369
vn 0.548585 -0.605684 -0.576369
vn 0.548585 -0.605684 -0.576369
vn 0.245635 -0.055938 -0.967747
vn 0.245635 -0.055938 -0.967747
vn 0.245635 -0.055935 -0.967747
vn -0.495509 -0.346026 0.796704
vn -0.495438 -0.345652 0.796910
vn -0.650027 -0.546487 0.528031
vn -0.480486 -0.601568 0.638161
s 1
g pCone23
usemtl phong3SG
f 1/1/1 2/2/2 3/3/3
s 2
usemtl initialShadingGroup
f 4/4/4 5/5/5 6/6/6
s 3
f 21/21/7 9/9/8 41/66/9
f 9/9/8 10/10/10 41/66/9
f 10/10/10 22/67/11 41/66/9
f 11/11/12 8/8/13 24/68/14
f 41/66/9 22/67/11 26/26/15
f 22/67/11 24/68/14 26/26/15
f 8/8/13 26/26/15 24/68/14
s 5
f 25/25/16 34/36/17 14/14/18
f 14/14/18 34/36/17 27/74/19
f 27/73/19 34/79/17 37/39/20
f 34/79/17 35/37/21 37/39/20
f 35/37/21 36/38/22 37/39/20
s 1
f 16/16/23 1/1/1 17/17/24
usemtl phong2SG
f 17/17/24 1/1/1 3/3/3
s 6
usemtl initialShadingGroup
f 18/18/25 8/8/26 11/11/27
s 7
usemtl phong3SG
f 8/8/28 9/9/29 20/20/30
usemtl initialShadingGroup
f 20/20/30 9/9/29 21/21/31
s 8
f 6/6/32 24/24/33 4/4/34
f 5/5/35 4/4/34 39/54/36
f 39/54/36 4/4/34 19/61/37
f 19/61/37 4/4/34 40/56/38
f 40/56/38 4/4/34 23/23/39
f 23/23/39 4/4/34 22/22/40
f 22/22/40 4/4/34 24/24/33
s 10
f 12/12/41 13/13/42 37/64/43
f 13/13/42 41/77/44 37/64/43
f 31/31/45 15/15/46 26/78/47
f 28/28/48 27/69/49 15/15/46
f 15/15/46 27/70/49 26/78/47
f 26/65/47 27/71/49 41/49/44
f 27/72/49 37/64/43 41/77/44
s 12
f 25/25/50 14/14/51 29/29/52
s 13
f 30/30/53 15/15/54 31/31/55
s 14
usemtl phong3SG
f 15/15/56 13/13/57 32/32/58
usemtl initialShadingGroup
f 32/32/58 13/13/57 12/12/59
s 7
usemtl phong2SG
f 18/18/60 33/33/61 8/8/28
f 9/9/29 8/8/28 10/10/62
f 10/10/62 8/8/28 33/33/61
s 16
usemtl initialShadingGroup
f 3/3/63 19/19/64 34/34/65
f 2/2/66 1/1/67 7/7/68
f 16/16/69 35/35/70 1/1/67
f 34/34/65 19/19/64 35/35/70
f 19/19/64 40/44/71 35/35/70
f 7/7/68 1/1/67 40/44/71
f 1/1/67 35/35/70 40/44/71
s 19
f 32/32/72 38/40/73 15/15/74
f 28/28/75 15/15/74 38/40/73
s 1
f 3/3/3 2/2/2 19/19/76
f 7/7/77 39/41/78 2/2/2
f 2/2/2 39/41/78 19/19/76
s 2
f 22/22/79 10/42/80 23/23/81
usemtl phong3SG
f 23/23/81 10/42/80 6/6/6
f 10/42/80 33/43/82 6/6/6
s 13
usemtl initialShadingGroup
f 20/20/83 30/45/53 8/8/84
f 8/8/84 30/45/53 26/26/85
f 26/26/85 30/45/53 31/46/55
s 22
usemtl phong3SG
f 29/29/86 14/14/87 17/48/88
usemtl initialShadingGroup
f 35/37/89 16/47/90 36/38/91
f 17/48/88 14/14/87 16/47/90
usemtl phong3SG
f 36/38/91 16/47/90 14/14/87
s 14
usemtl phong2SG
f 30/30/92 20/50/93 15/15/56
usemtl initialShadingGroup
f 41/77/94 13/13/57 21/51/95
usemtl phong2SG
f 13/13/57 15/15/56 21/51/95
f 15/15/56 20/50/93 21/51/95
s 19
usemtl initialShadingGroup
f 14/14/96 27/75/97 38/53/73
f 27/27/97 28/52/75 38/76/73
s 2
usemtl phong2SG
f 5/5/5 39/54/98 6/6/6
f 39/54/98 7/55/99 6/6/6
usemtl initialShadingGroup
f 40/56/100 23/23/81 7/55/99
usemtl phong2SG
f 7/55/99 23/23/81 6/6/6
s 6
usemtl initialShadingGroup
f 24/24/101 6/6/102 33/43/103 18/57/25 11/58/27
s 12
f 17/17/104 3/3/105 29/60/52
f 3/3/105 34/34/106 29/60/52
f 34/34/106 25/59/50 29/60/52
s 22
f 38/53/107 32/62/108 14/14/87
f 37/39/109 36/38/91 12/63/110
usemtl phong2SG
f 36/38/91 14/14/87 12/63/110
f 14/14/87 32/62/108 12/63/110
g default
v -23.111553 -0.296861 6.739564
v -22.237288 -0.099511 6.653264
v -22.677401 2.303233 6.072824
v -22.644978 -0.442896 6.228316
v -22.701897 0.048881 6.194754
v -20.856522 -0.227721 7.689021
v -22.696114 -0.010531 6.295290
v -21.650263 -2.112707 7.941401
v -23.114395 -0.297511 6.740195
v -22.818243 -0.458228 6.659936
v -22.465368 -0.497109 6.440778
v -23.197577 -0.456767 6.462720
v -23.110273 -0.294817 6.731346
v -25.141785 -0.028922 5.439585
v -24.636948 -2.369294 6.511181
v -23.277802 -0.010531 6.055068
v -23.277987 -0.009913 6.054089
v -22.283623 -0.550358 6.669726
v -22.735558 -0.010531 6.243018
v -22.937208 -1.099374 6.516122
v -23.010908 -0.701365 6.582877
v -22.887959 -0.672628 6.537981
v -23.106905 -0.299349 6.729916
v -22.764223 -0.745334 6.417176
v -22.876654 -0.003373 6.155577
v -22.843298 -0.865851 6.370126
v -23.036045 -0.710803 6.208443
v -23.176296 -0.591718 6.110477
v -22.920181 0.012932 6.143586
v -22.829748 -1.041999 6.537921
v -22.817041 -0.885324 6.397331
v -23.551504 -0.713973 6.131126
v -22.308939 -0.699545 6.802406
v -22.878155 -0.010531 6.155609
v -22.885847 -0.010531 6.190227
v -23.111376 -0.296971 6.734220
v -23.071333 -0.584715 6.485710
v -23.545322 -0.719397 6.132616
v -22.736282 0.009441 6.239924
v -22.753695 -0.010531 6.262797
v -22.965197 -0.667269 6.583606
vt 0.599656 -0.957776
vt 1.131261 -0.957776
vt -0.463556 2.457776
vt -0.463555 -0.957776
vt 0.068051 -0.957776
vt -0.463556 2.457776
vt 1.494304 -0.957776
vt -0.463556 2.457776
vt 0.599656 -0.957776
vt 0.470825 -0.957776
vt -0.137410 -0.957776
vt 0.745060 -0.957776
vt 0.599656 -0.957776
vt -0.463556 2.457776
vt -0.463556 2.457776
vt 0.068906 -0.957776
vt 0.067908 -0.956864
vt 0.006037 -0.559343
vt 1.558654 -0.957776
vt 0.989756 -0.654719
vt 0.820900 -0.957776
vt 0.944141 -0.957776
vt 0.599656 -0.957776
vt 1.278229 -0.957776
vt 1.148607 -0.957776
vt 1.395525 -0.957776
vt -0.196317 -0.957776
vt 1.383005 -0.957776
vt 1.098563 -0.887747
vt 0.035107 -0.746111
vt -0.136370 -0.957776
vt 0.887293 -0.435281
vt 0.036610 -0.309288
vt -0.374072 -0.957776
vt -0.315166 -0.957776
vt 1.056333 -0.957776
vt 1.093797 -0.957776
vt 0.599656 -0.957776
vt 0.367196 -0.957776
vt 0.895936 -0.435994
vt 1.543200 -0.928294
vt 0.666567 -0.720697
vt 0.719900 -0.076780
vt -0.160554 -0.957776
vt 1.099149 -0.624968
vt 1.368150 -0.897066
vt 0.827047 -0.361916
vt 0.827663 -0.361166
vt 0.384749 -0.957776
vt 0.034922 -0.568442
vt 0.371706 -0.876239
vt -0.296556 -0.693907
vt -0.047183 -0.217401
vt 0.124713 -0.957776
vt 0.127770 -0.863520
vt 0.153407 -0.957776
vt 0.957913 -0.152011
vt 1.312039 -0.564292
vt -0.375320 -0.947209
vt -0.326277 -0.923140
vt 0.107172 -0.957776
vt -0.046442 -0.206606
vt 0.397054 -0.734595
vt 0.273057 -0.957776
vt -0.170264 -0.957776
vt 0.659001 -0.957776
vt 0.403814 -0.957776
vt 0.013730 -0.957776
vt -0.196317 -0.957776
vt -0.196317 -0.957776
vt -0.196317 -0.957776
vt -0.196317 -0.957776
vt -0.196317 -0.957776
vt -0.196317 -0.957776
vt -0.196317 -0.957776
vt -0.047183 -0.217401
vt 0.384749 -0.957776
vt -0.170264 -0.957776
vt 1.056333 -0.957776
vn -0.408393 0.290125 0.865473
vn 0.458936 0.287063 0.840816
vn -0.236199 0.400715 0.885233
vn 0.630989 0.020104 -0.775531
vn 0.635508 0.164056 -0.754464
vn -0.002374 0.910868 0.412691
vn -0.213820 0.306542 -0.927531
vn -0.056405 0.369957 -0.927335
vn -0.182474 0.409044 -0.894084
vn -0.067608 0.383801 -0.920937
vn -0.396948 0.547940 -0.736338
vn 0.452824 -0.473345 -0.755576
vn 0.489862 -0.439922 -0.752664
vn 0.519313 -0.384701 -0.763099
vn 0.676777 -0.163829 -0.717728
vn 0.301399 -0.067516 -0.951105
vn 0.343629 -0.146535 -0.927603
vn 0.299695 -0.138778 -0.943888
vn 0.395732 -0.157487 -0.904762
vn 0.949333 -0.170982 0.263689
vn 0.944000 -0.155082 0.291227
vn 0.938604 -0.141234 0.314763
vn -0.922056 0.215036 0.321826
vn -0.917216 0.235544 0.321300
vn 0.729348 -0.249535 -0.637012
vn 0.738660 -0.219364 -0.637386
vn 0.706620 -0.314194 -0.634012
vn -0.687657 -0.057721 0.723737
vn -0.681555 -0.065070 0.728868
vn -0.805538 -0.317757 0.500139
vn -0.944935 -0.124191 -0.302778
vn 0.553262 -0.587133 -0.590911
vn 0.474178 -0.593212 -0.650580
vn 0.252152 -0.584550 -0.771181
vn -0.730769 -0.130316 -0.670070
vn -0.730769 -0.130316 -0.670070
vn -0.730764 -0.130307 -0.670078
vn -0.747184 -0.135995 -0.650554
vn -0.747144 -0.119719 -0.653791
vn -0.743714 -0.103599 -0.660421
vn 0.646807 0.541729 -0.536815
vn 0.705680 0.510817 -0.491001
vn 0.729861 0.564951 -0.384880
vn 0.741711 0.601374 -0.297008
vn 0.386452 -0.531753 -0.753587
vn 0.303106 -0.446535 -0.841863
vn 0.401773 -0.394719 -0.826302
vn 0.260876 -0.411251 -0.873394
vn 0.335818 -0.399822 -0.852859
vn 0.300981 0.106574 -0.947656
vn 0.298862 0.099908 -0.949052
vn 0.249179 -0.046188 -0.967355
vn 0.381481 -0.609290 -0.695153
vn 0.460003 -0.613389 -0.641990
vn 0.467360 -0.611139 -0.638815
vn -0.603327 0.380126 0.701071
vn -0.533109 0.321197 0.782705
vn -0.799115 0.570738 0.188875
vn -0.201660 0.866406 -0.456808
vn 0.098574 0.651934 0.751841
vn 0.098577 0.651929 0.751845
vn 0.433115 0.722820 0.538463
vn 0.521112 -0.075633 -0.850131
vn 0.520711 -0.085142 -0.849477
vn 0.520610 -0.087367 -0.849313
vn 0.159116 -0.890910 -0.425395
vn 0.156274 -0.894827 -0.418167
vn 0.163877 -0.891870 -0.421560
vn 0.141767 -0.900492 -0.411115
vn 0.157028 -0.904091 -0.397445
vn 0.205408 -0.905794 -0.370600
vn 0.024349 -0.239007 -0.970713
vn 0.078043 -0.385016 -0.919604
vn 0.024418 -0.238888 -0.970740
vn -0.094904 0.102621 -0.990183
vn 0.626182 -0.072613 -0.776289
vn 0.176991 -0.877837 -0.445058
vn -0.647269 -0.095125 0.756303
vn -0.052445 -0.480822 0.875248
vn -0.270723 -0.643584 0.715897
vn -0.278501 0.736481 0.616468
vn -0.402525 -0.350212 0.845769
vn 0.424632 -0.511457 -0.747060
vn 0.332674 -0.593823 -0.732600
vn 0.248492 -0.658021 -0.710816
vn -0.189289 0.814153 0.548930
vn -0.394327 0.515575 0.760716
vn -0.189289 0.814154 0.548929
vn -0.142807 0.898943 0.414136
vn -0.145510 0.898274 0.414645
vn -0.393792 0.564660 0.725319
vn -0.456628 0.608595 0.648924
vn 0.052294 -0.073873 0.995896
vn 0.202751 -0.291805 0.934742
vn 0.206239 -0.242379 0.948007
vn 0.133546 -0.531060 -0.836744
vn 0.133547 -0.531057 -0.836746
vn -0.282197 0.818721 0.500060
vn -0.205700 0.888969 0.409171
vn -0.218951 0.895278 0.387992
vn 0.548585 -0.605684 -0.576369
vn 0.548585 -0.605684 -0.576369
vn 0.548585 -0.605684 -0.576369
vn 0.245635 -0.055938 -0.967747
vn 0.245635 -0.055938 -0.967747
vn 0.245635 -0.055935 -0.967747
vn -0.495509 -0.346026 0.796704
vn -0.495438 -0.345652 0.796910
vn -0.650027 -0.546487 0.528031
vn -0.480486 -0.601568 0.638161
s 1
g pCone23
f 42/80/111 43/81/112 44/82/113
s 2
f 45/83/114 46/84/115 47/85/116
s 3
f 62/100/117 50/88/118 82/145/119
f 50/88/118 51/89/120 82/145/119
f 51/89/120 63/146/121 82/145/119
f 52/90/122 49/87/123 65/147/124
f 82/145/119 63/146/121 67/105/125
f 63/146/121 65/147/124 67/105/125
f 49/87/123 67/105/125 65/147/124
s 5
f 66/104/126 75/115/127 55/93/128
f 55/93/128 75/115/127 68/153/129
f 68/152/129 75/158/127 78/118/130
f 75/158/127 76/116/131 78/118/130
f 76/116/131 77/117/132 78/118/130
s 1
f 57/95/133 42/80/111 58/96/134
f 58/96/134 42/80/111 44/82/113
s 6
f 59/97/135 49/87/136 52/90/137
s 7
f 49/87/138 50/88/139 61/99/140
f 61/99/140 50/88/139 62/100/141
s 8
f 47/85/142 65/103/143 45/83/144
f 46/84/145 45/83/144 80/133/146
f 80/133/146 45/83/144 60/140/147
f 60/140/147 45/83/144 81/135/148
f 81/135/148 45/83/144 64/102/149
f 64/102/149 45/83/144 63/101/150
f 63/101/150 45/83/144 65/103/143
s 10
f 53/91/151 54/92/152 78/143/153
f 54/92/152 82/156/154 78/143/153
f 72/110/155 56/94/156 67/157/157
f 69/107/158 68/148/159 56/94/156
f 56/94/156 68/149/159 67/157/157
f 67/144/157 68/150/159 82/128/154
f 68/151/159 78/143/153 82/156/154
s 12
f 66/104/160 55/93/161 70/108/162
s 13
f 71/109/163 56/94/164 72/110/165
s 14
f 56/94/166 54/92/167 73/111/168
f 73/111/168 54/92/167 53/91/169
s 7
f 59/97/170 74/112/171 49/87/138
f 50/88/139 49/87/138 51/89/172
f 51/89/172 49/87/138 74/112/171
s 16
f 44/82/173 60/98/174 75/113/175
f 43/81/176 42/80/177 48/86/178
f 57/95/179 76/114/180 42/80/177
f 75/113/175 60/98/174 76/114/180
f 60/98/174 81/123/181 76/114/180
f 48/86/178 42/80/177 81/123/181
f 42/80/177 76/114/180 81/123/181
s 19
f 73/111/182 79/119/183 56/94/184
f 69/107/185 56/94/184 79/119/183
s 1
f 44/82/113 43/81/112 60/98/186
f 48/86/187 80/120/188 43/81/112
f 43/81/112 80/120/188 60/98/186
s 2
f 63/101/189 51/121/190 64/102/191
f 64/102/191 51/121/190 47/85/116
f 51/121/190 74/122/192 47/85/116
s 13
f 61/99/193 71/124/163 49/87/194
f 49/87/194 71/124/163 67/105/195
f 67/105/195 71/124/163 72/125/165
s 22
f 70/108/196 55/93/197 58/127/198
f 76/116/199 57/126/200 77/117/201
f 58/127/198 55/93/197 57/126/200
f 77/117/201 57/126/200 55/93/197
s 14
f 71/109/202 61/129/203 56/94/166
f 82/156/204 54/92/167 62/130/205
f 54/92/167 56/94/166 62/130/205
f 56/94/166 61/129/203 62/130/205
s 19
f 55/93/206 68/154/207 79/132/183
f 68/106/207 69/131/185 79/155/183
s 2
f 46/84/115 80/133/208 47/85/116
f 80/133/208 48/134/209 47/85/116
f 81/135/210 64/102/191 48/134/209
f 48/134/209 64/102/191 47/85/116
s 6
f 65/103/211 47/85/212 74/122/213 59/136/135 52/137/137
s 12
f 58/96/214 44/82/215 70/139/162
f 44/82/215 75/113/216 70/139/162
f 75/113/216 66/138/160 70/139/162
s 22
f 79/132/217 73/141/218 55/93/197
f 78/118/219 77/117/201 53/142/220
f 77/117/201 55/93/197 53/142/220
f 55/93/197 73/141/218 53/142/220
