# This file uses centimeters as units for non-parametric coordinates.

mtllib theater2.mtl
g default
v 36.406401 -50.428872 -0.701323
v 36.406401 -50.428872 107.278381
v 36.406401 41.707259 107.278381
v 36.406401 41.707259 -0.701323
v 37.858435 33.933520 107.278381
v 37.858435 -38.664224 107.278381
v 37.858435 -38.664224 12.170473
v 37.858435 33.933520 12.170473
v 195.475741 41.707259 -0.701323
v 195.475741 -50.428872 -0.701323
v 165.392367 -38.664224 12.170473
v 165.392367 33.933520 12.170473
v 195.475741 -50.428876 107.278381
v 165.392367 -38.664224 107.278381
v 165.392367 33.933520 107.278381
v 195.475741 41.707255 107.278381
v 174.409945 -27.543348 107.278381
v 174.409945 -39.242475 107.278381
v 174.409945 -39.242475 103.517555
v 174.409945 -27.543348 103.517555
v 187.096895 -39.242479 107.278381
v 187.096895 -39.242475 103.517555
v 187.096895 -27.543348 103.517555
v 187.096895 -27.543348 107.278381
v 174.409945 -11.758663 107.278381
v 174.409945 -23.457792 107.278381
v 174.409945 -23.457792 103.517555
v 174.409945 -11.758663 103.517555
v 187.096895 -23.457792 107.278381
v 187.096895 -23.457792 103.517555
v 187.096895 -11.758663 103.517555
v 187.096895 -11.758663 107.278381
v 174.409945 4.910897 107.278381
v 174.409945 -6.788232 107.278381
v 174.409945 -6.788232 103.517555
v 174.409945 4.910897 103.517555
v 187.096895 -6.788232 107.278381
v 187.096895 -6.788232 103.517555
v 187.096895 4.910897 103.517555
v 187.096895 4.910897 107.278381
v 174.409945 19.959830 107.278381
v 174.409945 8.260700 107.278381
v 174.409945 8.260700 103.517555
v 174.409945 19.959830 103.517555
v 187.096895 8.260700 107.278381
v 187.096895 8.260700 103.517555
v 187.096895 19.959830 103.517555
v 187.096895 19.959830 107.278381
v 174.409945 35.111323 107.278381
v 174.409945 23.412194 107.278381
v 174.409945 23.412194 103.517555
v 174.409945 35.111323 103.517555
v 187.096895 23.412194 107.278381
v 187.096895 23.412194 103.517555
v 187.096895 35.111323 103.517555
v 187.096895 35.111323 107.278381
vt 0.125000 0.000000
vt 0.375000 0.000000
vt 0.375000 0.250000
vt 0.125000 0.250000
vt 0.370337 0.250000
vt 0.370337 0.000000
vt 0.125000 0.000000
vt 0.125000 0.250000
vt 0.375000 0.500000
vt 0.625000 0.500000
vt 0.625000 0.750000
vt 0.375000 0.750000
vt 0.375000 0.500000
vt -0.191667 -0.013607
vt 1.191667 -0.013607
vt 0.625000 0.500000
vt 0.625000 1.000000
vt 0.375000 1.000000
vt -0.225823 0.646722
vt 1.225823 0.646722
vt 0.625000 0.254663
vt 0.375000 0.254663
vt 0.625000 0.250000
vt 0.629663 0.000000
vt 0.629663 0.250000
vt 0.875000 0.250000
vt 0.875000 0.000000
vt 0.625000 0.000000
vt 0.875000 0.000000
vt 0.875000 0.250000
vt 0.254363 0.250000
vt 0.254363 0.000000
vt 0.125000 0.000000
vt 0.125000 0.250000
vt 0.375000 0.879363
vt 0.625000 0.879363
vt 0.625000 0.750000
vt 0.375000 0.750000
vt 0.375000 0.500000
vt 0.625000 0.500000
vt 0.625000 0.370637
vt 0.375000 0.370637
vt 0.745637 0.000000
vt 0.745637 0.250000
vt 0.875000 0.250000
vt 0.875000 0.000000
vt 0.254363 0.250000
vt 0.254363 0.000000
vt 0.125000 0.000000
vt 0.125000 0.250000
vt 0.375000 0.879363
vt 0.625000 0.879363
vt 0.625000 0.750000
vt 0.375000 0.750000
vt 0.375000 0.500000
vt 0.625000 0.500000
vt 0.625000 0.370637
vt 0.375000 0.370637
vt 0.745637 0.000000
vt 0.745637 0.250000
vt 0.875000 0.250000
vt 0.875000 0.000000
vt 0.254363 0.250000
vt 0.254363 0.000000
vt 0.125000 0.000000
vt 0.125000 0.250000
vt 0.375000 0.879363
vt 0.625000 0.879363
vt 0.625000 0.750000
vt 0.375000 0.750000
vt 0.375000 0.500000
vt 0.625000 0.500000
vt 0.625000 0.370637
vt 0.375000 0.370637
vt 0.745637 0.000000
vt 0.745637 0.250000
vt 0.875000 0.250000
vt 0.875000 0.000000
vt 0.254363 0.250000
vt 0.254363 0.000000
vt 0.125000 0.000000
vt 0.125000 0.250000
vt 0.375000 0.879363
vt 0.625000 0.879363
vt 0.625000 0.750000
vt 0.375000 0.750000
vt 0.375000 0.500000
vt 0.625000 0.500000
vt 0.625000 0.370637
vt 0.375000 0.370637
vt 0.745637 0.000000
vt 0.745637 0.250000
vt 0.875000 0.250000
vt 0.875000 0.000000
vt 0.254363 0.250000
vt 0.254363 0.000000
vt 0.125000 0.000000
vt 0.125000 0.250000
vt 0.375000 0.879363
vt 0.625000 0.879363
vt 0.625000 0.750000
vt 0.375000 0.750000
vt 0.375000 0.500000
vt 0.625000 0.500000
vt 0.625000 0.370637
vt 0.375000 0.370637
vt 0.745637 0.000000
vt 0.745637 0.250000
vt 0.875000 0.250000
vt 0.875000 0.000000
vt 0.371222 0.031922
vt 0.377282 0.228907
vt 0.577720 0.228907
vt 0.581558 0.031922
vt 0.591892 0.030353
vt 0.591892 0.062097
vt 0.591892 0.073183
vt 0.591892 0.104927
vt 0.591892 0.118413
vt 0.591892 0.150158
vt 0.591892 0.159247
vt 0.591892 0.190991
vt 0.591892 0.200359
vt 0.591892 0.232103
vt 0.611831 0.232103
vt 0.611831 0.200359
vt 0.611831 0.190991
vt 0.611831 0.159247
vt 0.611831 0.150158
vt 0.611831 0.118413
vt 0.611831 0.104927
vt 0.611831 0.073183
vt 0.611831 0.062097
vt 0.611831 0.030353
vn -1.000000 0.000000 0.000000
vn -1.000000 0.000000 0.000000
vn -1.000000 0.000000 0.000000
vn -1.000000 0.000000 0.000000
vn 1.000000 0.000000 0.000000
vn 1.000000 0.000000 0.000000
vn 1.000000 0.000000 0.000000
vn 1.000000 0.000000 0.000000
vn 0.000000 0.000000 -1.000000
vn 0.000000 0.000000 -1.000000
vn 0.000000 0.000000 -1.000000
vn 0.000000 0.000000 -1.000000
vn 0.000000 0.000000 1.000000
vn 0.000000 0.000000 1.000000
vn 0.000000 0.000000 1.000000
vn 0.000000 0.000000 1.000000
vn 0.000000 -1.000000 0.000000
vn 0.000000 -1.000000 0.000000
vn 0.000000 -1.000000 0.000000
vn 0.000000 -1.000000 0.000000
vn 0.000000 1.000000 0.000000
vn 0.000000 1.000000 0.000000
vn 0.000000 1.000000 0.000000
vn 0.000000 1.000000 0.000000
vn 0.000000 -1.000000 0.000000
vn 0.000000 -1.000000 0.000000
vn 0.000000 -1.000000 0.000000
vn 0.000000 -1.000000 0.000000
vn 0.000000 1.000000 0.000000
vn 0.000000 1.000000 0.000000
vn 0.000000 1.000000 0.000000
vn 0.000000 1.000000 0.000000
vn -1.000000 0.000000 0.000000
vn -1.000000 0.000000 0.000000
vn -1.000000 0.000000 0.000000
vn -1.000000 0.000000 0.000000
vn 1.000000 0.000000 0.000000
vn 1.000000 0.000000 0.000000
vn 1.000000 0.000000 0.000000
vn 1.000000 0.000000 0.000000
vn 1.000000 0.000000 0.000000
vn 1.000000 0.000000 0.000000
vn 1.000000 0.000000 0.000000
vn 1.000000 0.000000 0.000000
vn 0.000000 1.000000 0.000000
vn 0.000000 1.000000 0.000000
vn 0.000000 1.000000 0.000000
vn 0.000000 1.000000 0.000000
vn 0.000000 0.000000 1.000000
vn 0.000000 0.000000 1.000000
vn 0.000000 0.000000 1.000000
vn 0.000000 0.000000 1.000000
vn 0.000000 -1.000000 0.000000
vn 0.000000 -1.000000 0.000000
vn 0.000000 -1.000000 0.000000
vn 0.000000 -1.000000 0.000000
vn -1.000000 0.000000 0.000000
vn -1.000000 0.000000 0.000000
vn -1.000000 0.000000 0.000000
vn -1.000000 0.000000 0.000000
vn 1.000000 0.000000 0.000000
vn 1.000000 0.000000 0.000000
vn 1.000000 0.000000 0.000000
vn 1.000000 0.000000 0.000000
vn 0.000000 1.000000 0.000000
vn 0.000000 1.000000 0.000000
vn 0.000000 1.000000 0.000000
vn 0.000000 1.000000 0.000000
vn 0.000000 0.000000 1.000000
vn 0.000000 0.000000 1.000000
vn 0.000000 0.000000 1.000000
vn 0.000000 0.000000 1.000000
vn 0.000000 -1.000000 0.000000
vn 0.000000 -1.000000 0.000000
vn 0.000000 -1.000000 0.000000
vn 0.000000 -1.000000 0.000000
vn -1.000000 0.000000 0.000000
vn -1.000000 0.000000 0.000000
vn -1.000000 0.000000 0.000000
vn -1.000000 0.000000 0.000000
vn 1.000000 0.000000 0.000000
vn 1.000000 0.000000 0.000000
vn 1.000000 0.000000 0.000000
vn 1.000000 0.000000 0.000000
vn 0.000000 1.000000 0.000000
vn 0.000000 1.000000 0.000000
vn 0.000000 1.000000 0.000000
vn 0.000000 1.000000 0.000000
vn 0.000000 0.000000 1.000000
vn 0.000000 0.000000 1.000000
vn 0.000000 0.000000 1.000000
vn 0.000000 0.000000 1.000000
vn 0.000000 -1.000000 0.000000
vn 0.000000 -1.000000 0.000000
vn 0.000000 -1.000000 0.000000
vn 0.000000 -1.000000 0.000000
vn -1.000000 0.000000 0.000000
vn -1.000000 0.000000 0.000000
vn -1.000000 0.000000 0.000000
vn -1.000000 0.000000 0.000000
vn 1.000000 0.000000 0.000000
vn 1.000000 0.000000 0.000000
vn 1.000000 0.000000 0.000000
vn 1.000000 0.000000 0.000000
vn 0.000000 1.000000 0.000000
vn 0.000000 1.000000 0.000000
vn 0.000000 1.000000 0.000000
vn 0.000000 1.000000 0.000000
vn 0.000000 0.000000 1.000000
vn 0.000000 0.000000 1.000000
vn 0.000000 0.000000 1.000000
vn 0.000000 0.000000 1.000000
vn 0.000000 -1.000000 0.000000
vn 0.000000 -1.000000 0.000000
vn 0.000000 -1.000000 0.000000
vn 0.000000 -1.000000 0.000000
vn -1.000000 0.000000 0.000000
vn -1.000000 0.000000 0.000000
vn -1.000000 0.000000 0.000000
vn -1.000000 0.000000 0.000000
vn 1.000000 0.000000 0.000000
vn 1.000000 0.000000 0.000000
vn 1.000000 0.000000 0.000000
vn 1.000000 0.000000 0.000000
vn 0.000000 1.000000 0.000000
vn 0.000000 1.000000 0.000000
vn 0.000000 1.000000 0.000000
vn 0.000000 1.000000 0.000000
vn 0.000000 0.000000 1.000000
vn 0.000000 0.000000 1.000000
vn 0.000000 0.000000 1.000000
vn 0.000000 0.000000 1.000000
vn 0.000000 -1.000000 0.000000
vn 0.000000 -1.000000 0.000000
vn 0.000000 -1.000000 0.000000
vn 0.000000 -1.000000 0.000000
vn -1.000000 0.000000 0.000000
vn -1.000000 0.000000 0.000000
vn -1.000000 0.000000 0.000000
vn -1.000000 0.000000 0.000000
vn 0.000000 0.000000 1.000000
vn 0.000000 0.000000 1.000000
vn 0.000001 0.000000 1.000000
vn 0.000001 0.000000 1.000000
vn -0.000001 0.000000 1.000000
vn 0.000000 0.000000 1.000000
vn -0.000001 0.000000 1.000000
vn 0.000000 0.000000 1.000000
vn 0.000000 0.000000 1.000000
vn 0.000000 0.000000 1.000000
vn 0.000000 0.000000 1.000000
vn 0.000000 0.000000 1.000000
vn 0.000000 0.000000 1.000000
vn 0.000000 0.000000 1.000000
vn 0.000000 0.000000 1.000000
vn 0.000000 0.000000 1.000000
vn 0.000000 0.000000 1.000000
vn 0.000000 0.000000 1.000000
vn 0.000000 0.000000 1.000000
vn 0.000000 0.000000 1.000000
vn 0.000000 0.000000 1.000000
vn 0.000000 0.000000 1.000000
vn 0.000000 0.000000 1.000000
vn -0.000001 0.000000 1.000000
vn -0.000001 0.000000 1.000000
vn 0.000000 0.000000 1.000000
vn -0.000001 0.000000 1.000000
vn -0.000001 0.000000 1.000000
vn -0.000001 0.000000 1.000000
vn 0.000000 0.000000 1.000000
vn 0.000000 0.000000 1.000000
vn -0.000001 0.000000 1.000000
vn -0.000001 0.000000 1.000000
vn 0.000000 0.000000 1.000000
vn 0.000000 0.000000 1.000000
vn -0.000001 0.000000 1.000000
vn -0.000001 0.000000 1.000000
vn 0.000000 0.000000 1.000000
vn 0.000000 0.000000 1.000000
vn -0.000001 0.000000 1.000000
vn -0.000001 0.000000 1.000000
vn 0.000000 0.000000 1.000000
vn 0.000000 0.000000 1.000000
vn -0.000001 0.000000 1.000000
s 1
g theater:pCube10group1 group
usemtl theater:lambert2SG
f 1/1/1 2/2/2 4/4/3
f 4/4/3 2/2/2 3/3/4
s 2
usemtl theater:lambert3SG
f 5/5/5 6/6/6 8/8/7
f 8/8/7 6/6/6 7/7/8
s 3
usemtl theater:lambert2SG
f 4/9/9 9/10/10 1/12/11
f 1/12/11 9/10/10 10/11/12
s 4
usemtl theater:lambert3SG
f 8/13/13 7/14/14 12/16/15
f 12/16/15 7/14/14 11/15/16
s 5
usemtl theater:lambert2SG
f 1/12/17 10/11/18 2/18/19
f 2/18/19 10/11/18 13/17/20
s 6
usemtl lambert44SG
f 6/19/21 14/20/22 7/14/23
f 7/14/23 14/20/22 11/15/24
s 7
usemtl theater:lambert3SG
f 15/21/25 5/22/26 12/16/27
f 12/16/27 5/22/26 8/13/28
s 8
usemtl theater:lambert2SG
f 3/3/29 16/23/30 4/9/31
f 4/9/31 16/23/30 9/10/32
s 9
usemtl theater:lambert3SG
f 14/24/33 15/25/34 11/27/35
f 11/27/35 15/25/34 12/26/36
s 10
usemtl theater:lambert2SG
f 13/28/37 10/29/38 16/23/39
f 16/23/39 10/29/38 9/30/40
s 11
usemtl theater:lambert3SG
f 17/31/41 18/32/42 20/34/43
f 20/34/43 18/32/42 19/33/44
s 12
f 18/35/45 21/36/46 19/38/47
f 19/38/47 21/36/46 22/37/48
s 13
f 20/39/49 19/38/50 23/40/51
f 23/40/51 19/38/50 22/37/52
s 14
f 24/41/53 17/42/54 23/40/55
f 23/40/55 17/42/54 20/39/56
s 15
f 21/43/57 24/44/58 22/46/59
f 22/46/59 24/44/58 23/45/60
s 16
f 25/47/61 26/48/62 28/50/63
f 28/50/63 26/48/62 27/49/64
s 17
f 26/51/65 29/52/66 27/54/67
f 27/54/67 29/52/66 30/53/68
s 18
f 28/55/69 27/54/70 31/56/71
f 31/56/71 27/54/70 30/53/72
s 19
f 32/57/73 25/58/74 31/56/75
f 31/56/75 25/58/74 28/55/76
s 20
f 29/59/77 32/60/78 30/62/79
f 30/62/79 32/60/78 31/61/80
s 21
f 33/63/81 34/64/82 36/66/83
f 36/66/83 34/64/82 35/65/84
s 22
f 34/67/85 37/68/86 35/70/87
f 35/70/87 37/68/86 38/69/88
s 23
f 36/71/89 35/70/90 39/72/91
f 39/72/91 35/70/90 38/69/92
s 24
f 40/73/93 33/74/94 39/72/95
f 39/72/95 33/74/94 36/71/96
s 25
f 37/75/97 40/76/98 38/78/99
f 38/78/99 40/76/98 39/77/100
s 26
f 41/79/101 42/80/102 44/82/103
f 44/82/103 42/80/102 43/81/104
s 27
f 42/83/105 45/84/106 43/86/107
f 43/86/107 45/84/106 46/85/108
s 28
f 44/87/109 43/86/110 47/88/111
f 47/88/111 43/86/110 46/85/112
s 29
f 48/89/113 41/90/114 47/88/115
f 47/88/115 41/90/114 44/87/116
s 30
f 45/91/117 48/92/118 46/94/119
f 46/94/119 48/92/118 47/93/120
s 31
f 49/95/121 50/96/122 52/98/123
f 52/98/123 50/96/122 51/97/124
s 32
f 50/99/125 53/100/126 51/102/127
f 51/102/127 53/100/126 54/101/128
s 33
f 52/103/129 51/102/130 55/104/131
f 55/104/131 51/102/130 54/101/132
s 34
f 56/105/133 49/106/134 55/104/135
f 55/104/135 49/106/134 52/103/136
s 35
f 53/107/137 56/108/138 54/110/139
f 54/110/139 56/108/138 55/109/140
s 36
usemtl theater:lambert4SG
f 2/2/141 6/111/142 3/3/143
f 6/111/142 5/112/144 3/3/143
f 16/23/145 3/3/143 15/113/146
f 5/112/144 15/113/146 3/3/143
s 37
f 13/28/147 18/115/148 2/2/149
f 2/2/149 18/115/148 6/111/150
f 6/111/150 18/115/148 14/114/151
f 49/124/152 15/113/153 50/123/154
f 15/113/153 14/114/151 50/123/154
f 50/123/154 14/114/151 41/122/155
f 41/122/155 14/114/151 42/121/156
f 42/121/156 14/114/151 33/120/157
f 33/120/157 14/114/151 34/119/158
f 34/119/158 14/114/151 25/118/159
f 25/118/159 14/114/151 26/117/160
f 26/117/160 14/114/151 17/116/161
f 14/114/151 18/115/148 17/116/161
s 39
f 15/113/162 49/124/163 16/23/164
f 49/124/163 56/125/165 16/23/164
f 18/115/166 13/28/167 21/134/168
f 13/28/167 16/23/164 21/134/168
f 21/134/168 16/23/164 24/133/169
f 50/123/170 41/122/171 53/126/172
f 41/122/171 48/127/173 53/126/172
f 42/121/174 33/120/175 45/128/176
f 33/120/175 40/129/177 45/128/176
f 34/119/178 25/118/179 37/130/180
f 25/118/179 32/131/181 37/130/180
f 26/117/182 17/116/183 29/132/184
f 17/116/183 24/133/169 29/132/184
f 24/133/169 16/23/164 29/132/184
f 29/132/184 16/23/164 32/131/181
f 32/131/181 16/23/164 37/130/180
f 37/130/180 16/23/164 40/129/177
f 40/129/177 16/23/164 45/128/176
f 45/128/176 16/23/164 48/127/173
f 48/127/173 16/23/164 53/126/172
f 56/125/165 53/126/172 16/23/164
